<?xml version="1.0" encoding="UTF-8" standalone="no"?>
<!DOCTYPE svg PUBLIC "-//W3C//DTD SVG 1.1//EN"
 "http://www.w3.org/Graphics/SVG/1.1/DTD/svg11.dtd">
<!-- Generated by graphviz version 2.40.1 (0)
 -->
<!-- Title: snakemake_dag Pages: 1 -->
<svg width="1785pt" height="764pt"
 viewBox="0.00 0.00 1784.75 764.00" xmlns="http://www.w3.org/2000/svg" xmlns:xlink="http://www.w3.org/1999/xlink">
<g id="graph0" class="graph" transform="scale(1 1) rotate(0) translate(4 760)">
<title>snakemake_dag</title>
<polygon fill="#ffffff" stroke="transparent" points="-4,4 -4,-760 1780.7461,-760 1780.7461,4 -4,4"/>
<!-- 0 -->
<g id="node1" class="node">
<title>0</title>
<path fill="none" stroke="#88d856" stroke-width="2" d="M989.7461,-36C989.7461,-36 959.7461,-36 959.7461,-36 953.7461,-36 947.7461,-30 947.7461,-24 947.7461,-24 947.7461,-12 947.7461,-12 947.7461,-6 953.7461,0 959.7461,0 959.7461,0 989.7461,0 989.7461,0 995.7461,0 1001.7461,-6 1001.7461,-12 1001.7461,-12 1001.7461,-24 1001.7461,-24 1001.7461,-30 995.7461,-36 989.7461,-36"/>
<text text-anchor="middle" x="974.7461" y="-15.5" font-family="sans" font-size="10.00" fill="#000000">all</text>
</g>
<!-- 1 -->
<g id="node2" class="node">
<title>1</title>
<path fill="none" stroke="#56b1d8" stroke-width="2" d="M1048.7461,-180C1048.7461,-180 984.7461,-180 984.7461,-180 978.7461,-180 972.7461,-174 972.7461,-168 972.7461,-168 972.7461,-156 972.7461,-156 972.7461,-150 978.7461,-144 984.7461,-144 984.7461,-144 1048.7461,-144 1048.7461,-144 1054.7461,-144 1060.7461,-150 1060.7461,-156 1060.7461,-156 1060.7461,-168 1060.7461,-168 1060.7461,-174 1054.7461,-180 1048.7461,-180"/>
<text text-anchor="middle" x="1016.7461" y="-159.5" font-family="sans" font-size="10.00" fill="#000000">plotASVLength</text>
</g>
<!-- 1&#45;&gt;0 -->
<g id="edge19" class="edge">
<title>1&#45;&gt;0</title>
<path fill="none" stroke="#c0c0c0" stroke-width="2" d="M1023.7657,-143.7149C1029.8158,-125.0197 1036.2112,-95.4747 1026.7461,-72 1022.4236,-61.2796 1014.8417,-51.4983 1006.7823,-43.2948"/>
<polygon fill="#c0c0c0" stroke="#c0c0c0" stroke-width="2" points="1008.9903,-40.5652 999.3262,-36.2228 1004.1731,-45.644 1008.9903,-40.5652"/>
</g>
<!-- 22 -->
<g id="node23" class="node">
<title>22</title>
<path fill="none" stroke="#d8c356" stroke-width="2" d="M1166.7461,-108C1166.7461,-108 1128.7461,-108 1128.7461,-108 1122.7461,-108 1116.7461,-102 1116.7461,-96 1116.7461,-96 1116.7461,-84 1116.7461,-84 1116.7461,-78 1122.7461,-72 1128.7461,-72 1128.7461,-72 1166.7461,-72 1166.7461,-72 1172.7461,-72 1178.7461,-78 1178.7461,-84 1178.7461,-84 1178.7461,-96 1178.7461,-96 1178.7461,-102 1172.7461,-108 1166.7461,-108"/>
<text text-anchor="middle" x="1147.7461" y="-87.5" font-family="sans" font-size="10.00" fill="#000000">qc_report</text>
</g>
<!-- 1&#45;&gt;22 -->
<g id="edge46" class="edge">
<title>1&#45;&gt;22</title>
<path fill="none" stroke="#c0c0c0" stroke-width="2" d="M1049.8029,-143.8314C1067.39,-134.1652 1089.152,-122.2044 1107.6929,-112.014"/>
<polygon fill="#c0c0c0" stroke="#c0c0c0" stroke-width="2" points="1109.4258,-115.0554 1116.5036,-107.1715 1106.0542,-108.9209 1109.4258,-115.0554"/>
</g>
<!-- 2 -->
<g id="node3" class="node">
<title>2</title>
<path fill="none" stroke="#d8a456" stroke-width="2" d="M978.2461,-324C978.2461,-324 901.2461,-324 901.2461,-324 895.2461,-324 889.2461,-318 889.2461,-312 889.2461,-312 889.2461,-300 889.2461,-300 889.2461,-294 895.2461,-288 901.2461,-288 901.2461,-288 978.2461,-288 978.2461,-288 984.2461,-288 990.2461,-294 990.2461,-300 990.2461,-300 990.2461,-312 990.2461,-312 990.2461,-318 984.2461,-324 978.2461,-324"/>
<text text-anchor="middle" x="939.7461" y="-303.5" font-family="sans" font-size="10.00" fill="#000000">removeChimeras</text>
</g>
<!-- 2&#45;&gt;1 -->
<g id="edge22" class="edge">
<title>2&#45;&gt;1</title>
<path fill="none" stroke="#c0c0c0" stroke-width="2" d="M954.5514,-287.7029C962.3446,-277.5574 971.7145,-264.4975 978.7461,-252 990.0439,-231.9202 1000.0516,-207.8086 1006.9571,-189.5981"/>
<polygon fill="#c0c0c0" stroke="#c0c0c0" stroke-width="2" points="1010.2649,-190.7444 1010.4628,-180.1514 1003.7022,-188.3089 1010.2649,-190.7444"/>
</g>
<!-- 12 -->
<g id="node13" class="node">
<title>12</title>
<path fill="none" stroke="#56d863" stroke-width="2" d="M957.2461,-252C957.2461,-252 922.2461,-252 922.2461,-252 916.2461,-252 910.2461,-246 910.2461,-240 910.2461,-240 910.2461,-228 910.2461,-228 910.2461,-222 916.2461,-216 922.2461,-216 922.2461,-216 957.2461,-216 957.2461,-216 963.2461,-216 969.2461,-222 969.2461,-228 969.2461,-228 969.2461,-240 969.2461,-240 969.2461,-246 963.2461,-252 957.2461,-252"/>
<text text-anchor="middle" x="939.7461" y="-231.5" font-family="sans" font-size="10.00" fill="#000000">RDPtaxa</text>
</g>
<!-- 2&#45;&gt;12 -->
<g id="edge32" class="edge">
<title>2&#45;&gt;12</title>
<path fill="none" stroke="#c0c0c0" stroke-width="2" d="M939.7461,-287.8314C939.7461,-280.131 939.7461,-270.9743 939.7461,-262.4166"/>
<polygon fill="#c0c0c0" stroke="#c0c0c0" stroke-width="2" points="943.2462,-262.4132 939.7461,-252.4133 936.2462,-262.4133 943.2462,-262.4132"/>
</g>
<!-- 13 -->
<g id="node14" class="node">
<title>13</title>
<path fill="none" stroke="#afd856" stroke-width="2" d="M730.7461,-252C730.7461,-252 672.7461,-252 672.7461,-252 666.7461,-252 660.7461,-246 660.7461,-240 660.7461,-240 660.7461,-228 660.7461,-228 660.7461,-222 666.7461,-216 672.7461,-216 672.7461,-216 730.7461,-216 730.7461,-216 736.7461,-216 742.7461,-222 742.7461,-228 742.7461,-228 742.7461,-240 742.7461,-240 742.7461,-246 736.7461,-252 730.7461,-252"/>
<text text-anchor="middle" x="701.7461" y="-231.5" font-family="sans" font-size="10.00" fill="#000000">multipleAlign</text>
</g>
<!-- 2&#45;&gt;13 -->
<g id="edge33" class="edge">
<title>2&#45;&gt;13</title>
<path fill="none" stroke="#c0c0c0" stroke-width="2" d="M888.9811,-290.6425C848.7486,-278.4713 792.7995,-261.5456 752.5555,-249.3709"/>
<polygon fill="#c0c0c0" stroke="#c0c0c0" stroke-width="2" points="753.5239,-246.0073 742.9388,-246.4617 751.4969,-252.7074 753.5239,-246.0073"/>
</g>
<!-- 15 -->
<g id="node16" class="node">
<title>15</title>
<path fill="none" stroke="#56d8c1" stroke-width="2" d="M1134.7461,-252C1134.7461,-252 1042.7461,-252 1042.7461,-252 1036.7461,-252 1030.7461,-246 1030.7461,-240 1030.7461,-240 1030.7461,-228 1030.7461,-228 1030.7461,-222 1036.7461,-216 1042.7461,-216 1042.7461,-216 1134.7461,-216 1134.7461,-216 1140.7461,-216 1146.7461,-222 1146.7461,-228 1146.7461,-228 1146.7461,-240 1146.7461,-240 1146.7461,-246 1140.7461,-252 1134.7461,-252"/>
<text text-anchor="middle" x="1088.7461" y="-231.5" font-family="sans" font-size="10.00" fill="#000000">combineReadCounts</text>
</g>
<!-- 2&#45;&gt;15 -->
<g id="edge38" class="edge">
<title>2&#45;&gt;15</title>
<path fill="none" stroke="#c0c0c0" stroke-width="2" d="M977.3451,-287.8314C997.0958,-278.2874 1021.4758,-266.5065 1042.3878,-256.4013"/>
<polygon fill="#c0c0c0" stroke="#c0c0c0" stroke-width="2" points="1043.9364,-259.5403 1051.4175,-252.038 1040.8908,-253.2376 1043.9364,-259.5403"/>
</g>
<!-- 23 -->
<g id="node24" class="node">
<title>23</title>
<path fill="none" stroke="#97d856" stroke-width="2" d="M904.2461,-180C904.2461,-180 797.2461,-180 797.2461,-180 791.2461,-180 785.2461,-174 785.2461,-168 785.2461,-168 785.2461,-156 785.2461,-156 785.2461,-150 791.2461,-144 797.2461,-144 797.2461,-144 904.2461,-144 904.2461,-144 910.2461,-144 916.2461,-150 916.2461,-156 916.2461,-156 916.2461,-168 916.2461,-168 916.2461,-174 910.2461,-180 904.2461,-180"/>
<text text-anchor="middle" x="850.7461" y="-159.5" font-family="sans" font-size="10.00" fill="#000000">combining_annotations</text>
</g>
<!-- 2&#45;&gt;23 -->
<g id="edge50" class="edge">
<title>2&#45;&gt;23</title>
<path fill="none" stroke="#c0c0c0" stroke-width="2" d="M926.2778,-287.8086C918.7983,-277.4763 909.4721,-264.2042 901.7461,-252 888.6576,-231.3251 875.0546,-207.1638 865.1924,-189.0837"/>
<polygon fill="#c0c0c0" stroke="#c0c0c0" stroke-width="2" points="868.2391,-187.3598 860.3986,-180.234 862.0841,-190.6939 868.2391,-187.3598"/>
</g>
<!-- 3 -->
<g id="node4" class="node">
<title>3</title>
<path fill="none" stroke="#56d892" stroke-width="2" d="M1013.7461,-396C1013.7461,-396 943.7461,-396 943.7461,-396 937.7461,-396 931.7461,-390 931.7461,-384 931.7461,-384 931.7461,-372 931.7461,-372 931.7461,-366 937.7461,-360 943.7461,-360 943.7461,-360 1013.7461,-360 1013.7461,-360 1019.7461,-360 1025.7461,-366 1025.7461,-372 1025.7461,-372 1025.7461,-384 1025.7461,-384 1025.7461,-390 1019.7461,-396 1013.7461,-396"/>
<text text-anchor="middle" x="978.7461" y="-375.5" font-family="sans" font-size="10.00" fill="#000000">generateSeqtab</text>
</g>
<!-- 3&#45;&gt;2 -->
<g id="edge23" class="edge">
<title>3&#45;&gt;2</title>
<path fill="none" stroke="#c0c0c0" stroke-width="2" d="M968.9048,-359.8314C964.5504,-351.7925 959.3363,-342.1666 954.5292,-333.2918"/>
<polygon fill="#c0c0c0" stroke="#c0c0c0" stroke-width="2" points="957.5604,-331.5392 949.72,-324.4133 951.4053,-334.8732 957.5604,-331.5392"/>
</g>
<!-- 3&#45;&gt;15 -->
<g id="edge37" class="edge">
<title>3&#45;&gt;15</title>
<path fill="none" stroke="#c0c0c0" stroke-width="2" d="M989.6698,-359.8267C1001.1246,-341.2206 1020.031,-311.7454 1038.7461,-288 1046.3312,-278.3762 1055.2505,-268.3843 1063.4399,-259.6508"/>
<polygon fill="#c0c0c0" stroke="#c0c0c0" stroke-width="2" points="1066.0382,-261.9975 1070.3967,-252.3407 1060.9674,-257.1717 1066.0382,-261.9975"/>
</g>
<!-- 4 -->
<g id="node5" class="node">
<title>4</title>
<path fill="none" stroke="#59d856" stroke-width="2" d="M1076.2461,-540C1076.2461,-540 1029.2461,-540 1029.2461,-540 1023.2461,-540 1017.2461,-534 1017.2461,-528 1017.2461,-528 1017.2461,-516 1017.2461,-516 1017.2461,-510 1023.2461,-504 1029.2461,-504 1029.2461,-504 1076.2461,-504 1076.2461,-504 1082.2461,-504 1088.2461,-510 1088.2461,-516 1088.2461,-516 1088.2461,-528 1088.2461,-528 1088.2461,-534 1082.2461,-540 1076.2461,-540"/>
<text text-anchor="middle" x="1052.7461" y="-519.5" font-family="sans" font-size="10.00" fill="#000000">dada2Filter</text>
</g>
<!-- 4&#45;&gt;0 -->
<g id="edge13" class="edge">
<title>4&#45;&gt;0</title>
<path fill="none" stroke="#c0c0c0" stroke-width="2" d="M1017.0065,-519.9785C852.4552,-510.2058 175.7461,-464.7431 175.7461,-378 175.7461,-378 175.7461,-378 175.7461,-306 175.7461,-180.7605 -67.2782,-163.0206 18.7461,-72 50.866,-38.0146 765.2544,-22.0514 937.5866,-18.6872"/>
<polygon fill="#c0c0c0" stroke="#c0c0c0" stroke-width="2" points="937.7563,-22.1847 947.6869,-18.4924 937.6213,-15.186 937.7563,-22.1847"/>
</g>
<!-- 4&#45;&gt;3 -->
<g id="edge25" class="edge">
<title>4&#45;&gt;3</title>
<path fill="none" stroke="#c0c0c0" stroke-width="2" d="M1051.971,-503.6845C1050.485,-484.7015 1046.1789,-454.6871 1033.7461,-432 1027.8769,-421.29 1019.2022,-411.3531 1010.4683,-402.9993"/>
<polygon fill="#c0c0c0" stroke="#c0c0c0" stroke-width="2" points="1012.6052,-400.2123 1002.8469,-396.086 1007.9021,-405.397 1012.6052,-400.2123"/>
</g>
<!-- 8 -->
<g id="node9" class="node">
<title>8</title>
<path fill="none" stroke="#56d0d8" stroke-width="2" d="M1012.7461,-468C1012.7461,-468 944.7461,-468 944.7461,-468 938.7461,-468 932.7461,-462 932.7461,-456 932.7461,-456 932.7461,-444 932.7461,-444 932.7461,-438 938.7461,-432 944.7461,-432 944.7461,-432 1012.7461,-432 1012.7461,-432 1018.7461,-432 1024.7461,-438 1024.7461,-444 1024.7461,-444 1024.7461,-456 1024.7461,-456 1024.7461,-462 1018.7461,-468 1012.7461,-468"/>
<text text-anchor="middle" x="978.7461" y="-447.5" font-family="sans" font-size="10.00" fill="#000000">learnErrorRates</text>
</g>
<!-- 4&#45;&gt;8 -->
<g id="edge29" class="edge">
<title>4&#45;&gt;8</title>
<path fill="none" stroke="#c0c0c0" stroke-width="2" d="M1034.0728,-503.8314C1025.2212,-495.219 1014.4975,-484.7851 1004.8566,-475.4048"/>
<polygon fill="#c0c0c0" stroke="#c0c0c0" stroke-width="2" points="1007.0215,-472.6279 997.4135,-468.1628 1002.14,-477.645 1007.0215,-472.6279"/>
</g>
<!-- 11 -->
<g id="node12" class="node">
<title>11</title>
<path fill="none" stroke="#d85656" stroke-width="2" d="M1298.2461,-180C1298.2461,-180 1167.2461,-180 1167.2461,-180 1161.2461,-180 1155.2461,-174 1155.2461,-168 1155.2461,-168 1155.2461,-156 1155.2461,-156 1155.2461,-150 1161.2461,-144 1167.2461,-144 1167.2461,-144 1298.2461,-144 1298.2461,-144 1304.2461,-144 1310.2461,-150 1310.2461,-156 1310.2461,-156 1310.2461,-168 1310.2461,-168 1310.2461,-174 1304.2461,-180 1298.2461,-180"/>
<text text-anchor="middle" x="1232.7461" y="-159.5" font-family="sans" font-size="10.00" fill="#000000">plotQualityProfileAfterdada2</text>
</g>
<!-- 4&#45;&gt;11 -->
<g id="edge31" class="edge">
<title>4&#45;&gt;11</title>
<path fill="none" stroke="#c0c0c0" stroke-width="2" d="M1088.5171,-508.9302C1136.4989,-488.8193 1215.7461,-445.4015 1215.7461,-378 1215.7461,-378 1215.7461,-378 1215.7461,-306 1215.7461,-265.5973 1222.428,-219.2552 1227.4135,-190.3013"/>
<polygon fill="#c0c0c0" stroke="#c0c0c0" stroke-width="2" points="1230.9218,-190.5623 1229.2237,-180.1045 1224.0296,-189.3387 1230.9218,-190.5623"/>
</g>
<!-- 4&#45;&gt;15 -->
<g id="edge36" class="edge">
<title>4&#45;&gt;15</title>
<path fill="none" stroke="#c0c0c0" stroke-width="2" d="M1070.8793,-503.9463C1092.3885,-481.1207 1127.0523,-439.5227 1140.7461,-396 1145.3401,-381.3989 1147.3795,-306.8181 1139.7461,-288 1135.404,-277.2958 1127.8562,-267.471 1119.8778,-259.2207"/>
<polygon fill="#c0c0c0" stroke="#c0c0c0" stroke-width="2" points="1122.1344,-256.5344 1112.5092,-252.1065 1117.2724,-261.5703 1122.1344,-256.5344"/>
</g>
<!-- 26 -->
<g id="node27" class="node">
<title>26</title>
<path fill="none" stroke="#d8b456" stroke-width="2" d="M648.2461,-108C648.2461,-108 553.2461,-108 553.2461,-108 547.2461,-108 541.2461,-102 541.2461,-96 541.2461,-96 541.2461,-84 541.2461,-84 541.2461,-78 547.2461,-72 553.2461,-72 553.2461,-72 648.2461,-72 648.2461,-72 654.2461,-72 660.2461,-78 660.2461,-84 660.2461,-84 660.2461,-96 660.2461,-96 660.2461,-102 654.2461,-108 648.2461,-108"/>
<text text-anchor="middle" x="600.7461" y="-87.5" font-family="sans" font-size="10.00" fill="#000000">seqkit_counts_dada2</text>
</g>
<!-- 4&#45;&gt;26 -->
<g id="edge53" class="edge">
<title>4&#45;&gt;26</title>
<path fill="none" stroke="#c0c0c0" stroke-width="2" d="M1017.1623,-518.2275C911.8027,-506.0813 608.7461,-463.6956 608.7461,-378 608.7461,-378 608.7461,-378 608.7461,-234 608.7461,-193.8141 605.6017,-147.417 603.2556,-118.3918"/>
<polygon fill="#c0c0c0" stroke="#c0c0c0" stroke-width="2" points="606.722,-117.8422 602.4037,-108.1674 599.7462,-118.4235 606.722,-117.8422"/>
</g>
<!-- 5 -->
<g id="node6" class="node">
<title>5</title>
<path fill="none" stroke="#d8d356" stroke-width="2" d="M1214.2461,-612C1214.2461,-612 1165.2461,-612 1165.2461,-612 1159.2461,-612 1153.2461,-606 1153.2461,-600 1153.2461,-600 1153.2461,-588 1153.2461,-588 1153.2461,-582 1159.2461,-576 1165.2461,-576 1165.2461,-576 1214.2461,-576 1214.2461,-576 1220.2461,-576 1226.2461,-582 1226.2461,-588 1226.2461,-588 1226.2461,-600 1226.2461,-600 1226.2461,-606 1220.2461,-612 1214.2461,-612"/>
<text text-anchor="middle" x="1189.7461" y="-591.5" font-family="sans" font-size="10.00" fill="#000000">cutAdaptQc</text>
</g>
<!-- 5&#45;&gt;4 -->
<g id="edge26" class="edge">
<title>5&#45;&gt;4</title>
<path fill="none" stroke="#c0c0c0" stroke-width="2" d="M1155.1752,-575.8314C1137.3276,-566.4516 1115.3687,-554.9112 1096.3661,-544.9244"/>
<polygon fill="#c0c0c0" stroke="#c0c0c0" stroke-width="2" points="1097.7862,-541.7168 1087.3059,-540.1628 1094.5297,-547.9132 1097.7862,-541.7168"/>
</g>
<!-- 9 -->
<g id="node10" class="node">
<title>9</title>
<path fill="none" stroke="#ced856" stroke-width="2" d="M1456.7461,-180C1456.7461,-180 1340.7461,-180 1340.7461,-180 1334.7461,-180 1328.7461,-174 1328.7461,-168 1328.7461,-168 1328.7461,-156 1328.7461,-156 1328.7461,-150 1334.7461,-144 1340.7461,-144 1340.7461,-144 1456.7461,-144 1456.7461,-144 1462.7461,-144 1468.7461,-150 1468.7461,-156 1468.7461,-156 1468.7461,-168 1468.7461,-168 1468.7461,-174 1462.7461,-180 1456.7461,-180"/>
<text text-anchor="middle" x="1398.7461" y="-159.5" font-family="sans" font-size="10.00" fill="#000000">plotQualityProfileAfterQC</text>
</g>
<!-- 5&#45;&gt;9 -->
<g id="edge30" class="edge">
<title>5&#45;&gt;9</title>
<path fill="none" stroke="#c0c0c0" stroke-width="2" d="M1226.0999,-575.8217C1266.6868,-552.6537 1326.7461,-508.4889 1326.7461,-450 1326.7461,-450 1326.7461,-450 1326.7461,-306 1326.7461,-260.9118 1355.3344,-215.4695 1376.4825,-188.0221"/>
<polygon fill="#c0c0c0" stroke="#c0c0c0" stroke-width="2" points="1379.2929,-190.1111 1382.767,-180.102 1373.8094,-185.7601 1379.2929,-190.1111"/>
</g>
<!-- 19 -->
<g id="node20" class="node">
<title>19</title>
<path fill="none" stroke="#5663d8" stroke-width="2" d="M1462.2461,-540C1462.2461,-540 1425.2461,-540 1425.2461,-540 1419.2461,-540 1413.2461,-534 1413.2461,-528 1413.2461,-528 1413.2461,-516 1413.2461,-516 1413.2461,-510 1419.2461,-504 1425.2461,-504 1425.2461,-504 1462.2461,-504 1462.2461,-504 1468.2461,-504 1474.2461,-510 1474.2461,-516 1474.2461,-516 1474.2461,-528 1474.2461,-528 1474.2461,-534 1468.2461,-540 1462.2461,-540"/>
<text text-anchor="middle" x="1443.7461" y="-519.5" font-family="sans" font-size="10.00" fill="#000000">fastqcFilt</text>
</g>
<!-- 5&#45;&gt;19 -->
<g id="edge41" class="edge">
<title>5&#45;&gt;19</title>
<path fill="none" stroke="#c0c0c0" stroke-width="2" d="M1226.2625,-579.2584C1229.4529,-578.1082 1232.6461,-577.005 1235.7461,-576 1293.1225,-557.3992 1360.9847,-540.7557 1403.2057,-531.0158"/>
<polygon fill="#c0c0c0" stroke="#c0c0c0" stroke-width="2" points="1404.139,-534.3928 1413.1062,-528.7501 1402.5774,-527.5692 1404.139,-534.3928"/>
</g>
<!-- 27 -->
<g id="node28" class="node">
<title>27</title>
<path fill="none" stroke="#78d856" stroke-width="2" d="M309.7461,-108C309.7461,-108 201.7461,-108 201.7461,-108 195.7461,-108 189.7461,-102 189.7461,-96 189.7461,-96 189.7461,-84 189.7461,-84 189.7461,-78 195.7461,-72 201.7461,-72 201.7461,-72 309.7461,-72 309.7461,-72 315.7461,-72 321.7461,-78 321.7461,-84 321.7461,-84 321.7461,-96 321.7461,-96 321.7461,-102 315.7461,-108 309.7461,-108"/>
<text text-anchor="middle" x="255.7461" y="-87.5" font-family="sans" font-size="10.00" fill="#000000">seqkit_counts_cutadapt</text>
</g>
<!-- 5&#45;&gt;27 -->
<g id="edge55" class="edge">
<title>5&#45;&gt;27</title>
<path fill="none" stroke="#c0c0c0" stroke-width="2" d="M1153.2284,-592.9318C967.6374,-587.0311 137.7461,-554.7869 137.7461,-450 137.7461,-450 137.7461,-450 137.7461,-234 137.7461,-182.6012 183.2789,-139.4933 217.7759,-114.2093"/>
<polygon fill="#c0c0c0" stroke="#c0c0c0" stroke-width="2" points="220.1496,-116.8162 226.2741,-108.1709 216.0951,-111.11 220.1496,-116.8162"/>
</g>
<!-- 6 -->
<g id="node7" class="node">
<title>6</title>
<path fill="none" stroke="#56d8a2" stroke-width="2" d="M1239.7461,-684C1239.7461,-684 1203.7461,-684 1203.7461,-684 1197.7461,-684 1191.7461,-678 1191.7461,-672 1191.7461,-672 1191.7461,-660 1191.7461,-660 1191.7461,-654 1197.7461,-648 1203.7461,-648 1203.7461,-648 1239.7461,-648 1239.7461,-648 1245.7461,-648 1251.7461,-654 1251.7461,-660 1251.7461,-660 1251.7461,-672 1251.7461,-672 1251.7461,-678 1245.7461,-684 1239.7461,-684"/>
<text text-anchor="middle" x="1221.7461" y="-663.5" font-family="sans" font-size="10.00" fill="#000000">cutAdapt</text>
</g>
<!-- 6&#45;&gt;5 -->
<g id="edge27" class="edge">
<title>6&#45;&gt;5</title>
<path fill="none" stroke="#c0c0c0" stroke-width="2" d="M1213.6712,-647.8314C1210.1359,-639.8771 1205.9101,-630.369 1202.0005,-621.5723"/>
<polygon fill="#c0c0c0" stroke="#c0c0c0" stroke-width="2" points="1205.1896,-620.1299 1197.9298,-612.4133 1198.7929,-622.9729 1205.1896,-620.1299"/>
</g>
<!-- 28 -->
<g id="node29" class="node">
<title>28</title>
<path fill="none" stroke="#56d873" stroke-width="2" d="M1366.7461,-612C1366.7461,-612 1256.7461,-612 1256.7461,-612 1250.7461,-612 1244.7461,-606 1244.7461,-600 1244.7461,-600 1244.7461,-588 1244.7461,-588 1244.7461,-582 1250.7461,-576 1256.7461,-576 1256.7461,-576 1366.7461,-576 1366.7461,-576 1372.7461,-576 1378.7461,-582 1378.7461,-588 1378.7461,-588 1378.7461,-600 1378.7461,-600 1378.7461,-606 1372.7461,-612 1366.7461,-612"/>
<text text-anchor="middle" x="1311.7461" y="-591.5" font-family="sans" font-size="10.00" fill="#000000">primerRMVinvestigation</text>
</g>
<!-- 6&#45;&gt;28 -->
<g id="edge56" class="edge">
<title>6&#45;&gt;28</title>
<path fill="none" stroke="#c0c0c0" stroke-width="2" d="M1244.4569,-647.8314C1255.5421,-638.9632 1269.0415,-628.1637 1281.0313,-618.5718"/>
<polygon fill="#c0c0c0" stroke="#c0c0c0" stroke-width="2" points="1283.4203,-621.1429 1289.0426,-612.1628 1279.0474,-615.6768 1283.4203,-621.1429"/>
</g>
<!-- 29 -->
<g id="node30" class="node">
<title>29</title>
<path fill="none" stroke="#56d882" stroke-width="2" d="M159.2461,-108C159.2461,-108 40.2461,-108 40.2461,-108 34.2461,-108 28.2461,-102 28.2461,-96 28.2461,-96 28.2461,-84 28.2461,-84 28.2461,-78 34.2461,-72 40.2461,-72 40.2461,-72 159.2461,-72 159.2461,-72 165.2461,-72 171.2461,-78 171.2461,-84 171.2461,-84 171.2461,-96 171.2461,-96 171.2461,-102 165.2461,-108 159.2461,-108"/>
<text text-anchor="middle" x="99.7461" y="-87.5" font-family="sans" font-size="10.00" fill="#000000">seqkit_counts_primerRMV</text>
</g>
<!-- 6&#45;&gt;29 -->
<g id="edge59" class="edge">
<title>6&#45;&gt;29</title>
<path fill="none" stroke="#c0c0c0" stroke-width="2" d="M1191.7353,-665.3932C1013.3057,-661.3996 99.7461,-635.4149 99.7461,-522 99.7461,-522 99.7461,-522 99.7461,-234 99.7461,-193.876 99.7461,-147.4631 99.7461,-118.4177"/>
<polygon fill="#c0c0c0" stroke="#c0c0c0" stroke-width="2" points="103.2462,-118.1853 99.7461,-108.1854 96.2462,-118.1854 103.2462,-118.1853"/>
</g>
<!-- 7 -->
<g id="node8" class="node">
<title>7</title>
<path fill="none" stroke="#5682d8" stroke-width="2" d="M1275.2461,-756C1275.2461,-756 1226.2461,-756 1226.2461,-756 1220.2461,-756 1214.2461,-750 1214.2461,-744 1214.2461,-744 1214.2461,-732 1214.2461,-732 1214.2461,-726 1220.2461,-720 1226.2461,-720 1226.2461,-720 1275.2461,-720 1275.2461,-720 1281.2461,-720 1287.2461,-726 1287.2461,-732 1287.2461,-732 1287.2461,-744 1287.2461,-744 1287.2461,-750 1281.2461,-756 1275.2461,-756"/>
<text text-anchor="middle" x="1250.7461" y="-735.5" font-family="sans" font-size="10.00" fill="#000000">filterNsRaw</text>
</g>
<!-- 7&#45;&gt;6 -->
<g id="edge28" class="edge">
<title>7&#45;&gt;6</title>
<path fill="none" stroke="#c0c0c0" stroke-width="2" d="M1243.4282,-719.8314C1240.2585,-711.9617 1236.4762,-702.5712 1232.9648,-693.8533"/>
<polygon fill="#c0c0c0" stroke="#c0c0c0" stroke-width="2" points="1236.1453,-692.3815 1229.1626,-684.4133 1229.6522,-694.9968 1236.1453,-692.3815"/>
</g>
<!-- 7&#45;&gt;28 -->
<g id="edge57" class="edge">
<title>7&#45;&gt;28</title>
<path fill="none" stroke="#c0c0c0" stroke-width="2" d="M1258.4718,-719.7623C1268.9679,-694.9846 1287.8242,-650.4714 1300.057,-621.5939"/>
<polygon fill="#c0c0c0" stroke="#c0c0c0" stroke-width="2" points="1303.4053,-622.6628 1304.0831,-612.0896 1296.9597,-619.9323 1303.4053,-622.6628"/>
</g>
<!-- 8&#45;&gt;3 -->
<g id="edge24" class="edge">
<title>8&#45;&gt;3</title>
<path fill="none" stroke="#c0c0c0" stroke-width="2" d="M978.7461,-431.8314C978.7461,-424.131 978.7461,-414.9743 978.7461,-406.4166"/>
<polygon fill="#c0c0c0" stroke="#c0c0c0" stroke-width="2" points="982.2462,-406.4132 978.7461,-396.4133 975.2462,-406.4133 982.2462,-406.4132"/>
</g>
<!-- 9&#45;&gt;0 -->
<g id="edge8" class="edge">
<title>9&#45;&gt;0</title>
<path fill="none" stroke="#c0c0c0" stroke-width="2" d="M1367.4838,-143.8921C1331.6357,-123.8035 1270.6029,-91.6402 1214.7461,-72 1144.9291,-47.4512 1059.6648,-31.3942 1011.8548,-23.5809"/>
<polygon fill="#c0c0c0" stroke="#c0c0c0" stroke-width="2" points="1012.3845,-20.1212 1001.9565,-21.994 1011.2763,-27.0329 1012.3845,-20.1212"/>
</g>
<!-- 9&#45;&gt;22 -->
<g id="edge48" class="edge">
<title>9&#45;&gt;22</title>
<path fill="none" stroke="#c0c0c0" stroke-width="2" d="M1335.7322,-143.9243C1289.6803,-130.7142 1228.5576,-113.181 1188.7005,-101.7479"/>
<polygon fill="#c0c0c0" stroke="#c0c0c0" stroke-width="2" points="1189.6251,-98.372 1179.0477,-98.9789 1187.6949,-105.1007 1189.6251,-98.372"/>
</g>
<!-- 10 -->
<g id="node11" class="node">
<title>10</title>
<path fill="none" stroke="#56a2d8" stroke-width="2" d="M1596.7461,-180C1596.7461,-180 1498.7461,-180 1498.7461,-180 1492.7461,-180 1486.7461,-174 1486.7461,-168 1486.7461,-168 1486.7461,-156 1486.7461,-156 1486.7461,-150 1492.7461,-144 1498.7461,-144 1498.7461,-144 1596.7461,-144 1596.7461,-144 1602.7461,-144 1608.7461,-150 1608.7461,-156 1608.7461,-156 1608.7461,-168 1608.7461,-168 1608.7461,-174 1602.7461,-180 1596.7461,-180"/>
<text text-anchor="middle" x="1547.7461" y="-159.5" font-family="sans" font-size="10.00" fill="#000000">plotQualityProfileRaw</text>
</g>
<!-- 10&#45;&gt;0 -->
<g id="edge20" class="edge">
<title>10&#45;&gt;0</title>
<path fill="none" stroke="#c0c0c0" stroke-width="2" d="M1498.8537,-143.9974C1443.7715,-124.2279 1351.2779,-92.5642 1269.7461,-72 1178.2092,-48.9123 1068.3547,-31.4407 1012.0477,-23.2113"/>
<polygon fill="#c0c0c0" stroke="#c0c0c0" stroke-width="2" points="1012.2454,-19.7036 1001.8474,-21.7364 1011.2435,-26.6316 1012.2454,-19.7036"/>
</g>
<!-- 10&#45;&gt;22 -->
<g id="edge47" class="edge">
<title>10&#45;&gt;22</title>
<path fill="none" stroke="#c0c0c0" stroke-width="2" d="M1486.7382,-145.9696C1483.7033,-145.2798 1480.6934,-144.6188 1477.7461,-144 1374.6269,-122.3501 1251.8501,-104.2555 1189.1233,-95.5574"/>
<polygon fill="#c0c0c0" stroke="#c0c0c0" stroke-width="2" points="1189.2393,-92.0404 1178.8552,-94.1433 1188.2842,-98.975 1189.2393,-92.0404"/>
</g>
<!-- 11&#45;&gt;0 -->
<g id="edge1" class="edge">
<title>11&#45;&gt;0</title>
<path fill="none" stroke="#c0c0c0" stroke-width="2" d="M1228.5542,-143.9305C1222.844,-123.4111 1210.6086,-90.402 1187.7461,-72 1160.8603,-50.3598 1065.5759,-32.334 1012.0101,-23.6237"/>
<polygon fill="#c0c0c0" stroke="#c0c0c0" stroke-width="2" points="1012.3125,-20.1278 1001.8858,-22.0076 1011.209,-27.0403 1012.3125,-20.1278"/>
</g>
<!-- 11&#45;&gt;22 -->
<g id="edge44" class="edge">
<title>11&#45;&gt;22</title>
<path fill="none" stroke="#c0c0c0" stroke-width="2" d="M1211.297,-143.8314C1200.9283,-135.0485 1188.3232,-124.3712 1177.0816,-114.8489"/>
<polygon fill="#c0c0c0" stroke="#c0c0c0" stroke-width="2" points="1179.081,-111.9556 1169.1883,-108.1628 1174.5566,-117.297 1179.081,-111.9556"/>
</g>
<!-- 12&#45;&gt;0 -->
<g id="edge14" class="edge">
<title>12&#45;&gt;0</title>
<path fill="none" stroke="#c0c0c0" stroke-width="2" d="M944.0769,-215.9398C948.5703,-197.6742 956.0117,-168.6906 963.7461,-144 968.8313,-127.7666 973.8133,-124.7565 976.7461,-108 979.5046,-92.2396 977.0422,-87.9973 976.7461,-72 976.594,-63.7824 976.3117,-54.865 976.0063,-46.6892"/>
<polygon fill="#c0c0c0" stroke="#c0c0c0" stroke-width="2" points="979.4953,-46.3425 975.6003,-36.4897 972.5009,-46.621 979.4953,-46.3425"/>
</g>
<!-- 12&#45;&gt;23 -->
<g id="edge49" class="edge">
<title>12&#45;&gt;23</title>
<path fill="none" stroke="#c0c0c0" stroke-width="2" d="M917.2876,-215.8314C906.3256,-206.9632 892.9762,-196.1637 881.1196,-186.5718"/>
<polygon fill="#c0c0c0" stroke="#c0c0c0" stroke-width="2" points="883.1732,-183.7313 873.1974,-180.1628 878.7706,-189.1734 883.1732,-183.7313"/>
</g>
<!-- 13&#45;&gt;0 -->
<g id="edge9" class="edge">
<title>13&#45;&gt;0</title>
<path fill="none" stroke="#c0c0c0" stroke-width="2" d="M660.4621,-230.2794C575.5086,-222.2057 387.4862,-202.0238 368.7461,-180 346.9335,-154.3653 383.8208,-79.0824 392.7461,-72 435.3774,-38.1709 815.2556,-23.1184 937.2249,-19.129"/>
<polygon fill="#c0c0c0" stroke="#c0c0c0" stroke-width="2" points="937.6647,-22.6168 947.5472,-18.7978 937.4401,-15.6204 937.6647,-22.6168"/>
</g>
<!-- 14 -->
<g id="node15" class="node">
<title>14</title>
<path fill="none" stroke="#d88556" stroke-width="2" d="M737.2461,-108C737.2461,-108 690.2461,-108 690.2461,-108 684.2461,-108 678.2461,-102 678.2461,-96 678.2461,-96 678.2461,-84 678.2461,-84 678.2461,-78 684.2461,-72 690.2461,-72 690.2461,-72 737.2461,-72 737.2461,-72 743.2461,-72 749.2461,-78 749.2461,-84 749.2461,-84 749.2461,-96 749.2461,-96 749.2461,-102 743.2461,-108 737.2461,-108"/>
<text text-anchor="middle" x="713.7461" y="-87.5" font-family="sans" font-size="10.00" fill="#000000">newickTree</text>
</g>
<!-- 13&#45;&gt;14 -->
<g id="edge34" class="edge">
<title>13&#45;&gt;14</title>
<path fill="none" stroke="#c0c0c0" stroke-width="2" d="M689.2205,-215.6698C678.368,-197.4418 665.5919,-168.7075 673.7461,-144 677.0369,-134.0288 682.9577,-124.3944 689.2526,-116.0924"/>
<polygon fill="#c0c0c0" stroke="#c0c0c0" stroke-width="2" points="692.0133,-118.2448 695.5885,-108.2714 686.5741,-113.8384 692.0133,-118.2448"/>
</g>
<!-- 32 -->
<g id="node33" class="node">
<title>32</title>
<path fill="none" stroke="#56c1d8" stroke-width="2" d="M755.2461,-180C755.2461,-180 694.2461,-180 694.2461,-180 688.2461,-180 682.2461,-174 682.2461,-168 682.2461,-168 682.2461,-156 682.2461,-156 682.2461,-150 688.2461,-144 694.2461,-144 694.2461,-144 755.2461,-144 755.2461,-144 761.2461,-144 767.2461,-150 767.2461,-156 767.2461,-156 767.2461,-168 767.2461,-168 767.2461,-174 761.2461,-180 755.2461,-180"/>
<text text-anchor="middle" x="724.7461" y="-159.5" font-family="sans" font-size="10.00" fill="#000000">vsearchUNITE</text>
</g>
<!-- 13&#45;&gt;32 -->
<g id="edge63" class="edge">
<title>13&#45;&gt;32</title>
<path fill="none" stroke="#c0c0c0" stroke-width="2" d="M707.55,-215.8314C710.0369,-208.0463 712.9992,-198.7729 715.7586,-190.1347"/>
<polygon fill="#c0c0c0" stroke="#c0c0c0" stroke-width="2" points="719.1551,-191.0041 718.8641,-180.4133 712.487,-188.874 719.1551,-191.0041"/>
</g>
<!-- 14&#45;&gt;0 -->
<g id="edge4" class="edge">
<title>14&#45;&gt;0</title>
<path fill="none" stroke="#c0c0c0" stroke-width="2" d="M749.4474,-75.2122C752.5731,-74.0721 755.7038,-72.9838 758.7461,-72 820.5458,-52.0168 894.2752,-35.0022 937.6495,-25.6682"/>
<polygon fill="#c0c0c0" stroke="#c0c0c0" stroke-width="2" points="938.4238,-29.0819 947.4743,-23.5738 936.9643,-22.2357 938.4238,-29.0819"/>
</g>
<!-- 15&#45;&gt;0 -->
<g id="edge18" class="edge">
<title>15&#45;&gt;0</title>
<path fill="none" stroke="#c0c0c0" stroke-width="2" d="M1087.6472,-215.9526C1084.8913,-184.039 1075.3517,-116.7935 1042.7461,-72 1033.965,-59.9366 1021.8093,-49.1293 1010.2009,-40.4101"/>
<polygon fill="#c0c0c0" stroke="#c0c0c0" stroke-width="2" points="1012.0634,-37.4384 1001.9011,-34.4421 1007.9768,-43.1217 1012.0634,-37.4384"/>
</g>
<!-- 15&#45;&gt;22 -->
<g id="edge43" class="edge">
<title>15&#45;&gt;22</title>
<path fill="none" stroke="#c0c0c0" stroke-width="2" d="M1096.2185,-215.7623C1106.3705,-190.9846 1124.6085,-146.4714 1136.4403,-117.5939"/>
<polygon fill="#c0c0c0" stroke="#c0c0c0" stroke-width="2" points="1139.7817,-118.67 1140.3344,-108.0896 1133.3043,-116.0161 1139.7817,-118.67"/>
</g>
<!-- 16 -->
<g id="node17" class="node">
<title>16</title>
<path fill="none" stroke="#bed856" stroke-width="2" d="M1118.2461,-324C1118.2461,-324 1059.2461,-324 1059.2461,-324 1053.2461,-324 1047.2461,-318 1047.2461,-312 1047.2461,-312 1047.2461,-300 1047.2461,-300 1047.2461,-294 1053.2461,-288 1059.2461,-288 1059.2461,-288 1118.2461,-288 1118.2461,-288 1124.2461,-288 1130.2461,-294 1130.2461,-300 1130.2461,-300 1130.2461,-312 1130.2461,-312 1130.2461,-318 1124.2461,-324 1118.2461,-324"/>
<text text-anchor="middle" x="1088.7461" y="-303.5" font-family="sans" font-size="10.00" fill="#000000">numSeqParse</text>
</g>
<!-- 16&#45;&gt;15 -->
<g id="edge35" class="edge">
<title>16&#45;&gt;15</title>
<path fill="none" stroke="#c0c0c0" stroke-width="2" d="M1088.7461,-287.8314C1088.7461,-280.131 1088.7461,-270.9743 1088.7461,-262.4166"/>
<polygon fill="#c0c0c0" stroke="#c0c0c0" stroke-width="2" points="1092.2462,-262.4132 1088.7461,-252.4133 1085.2462,-262.4133 1092.2462,-262.4132"/>
</g>
<!-- 17 -->
<g id="node18" class="node">
<title>17</title>
<path fill="none" stroke="#68d856" stroke-width="2" d="M1119.2461,-396C1119.2461,-396 1056.2461,-396 1056.2461,-396 1050.2461,-396 1044.2461,-390 1044.2461,-384 1044.2461,-384 1044.2461,-372 1044.2461,-372 1044.2461,-366 1050.2461,-360 1056.2461,-360 1056.2461,-360 1119.2461,-360 1119.2461,-360 1125.2461,-360 1131.2461,-366 1131.2461,-372 1131.2461,-372 1131.2461,-384 1131.2461,-384 1131.2461,-390 1125.2461,-396 1119.2461,-396"/>
<text text-anchor="middle" x="1087.7461" y="-375.5" font-family="sans" font-size="10.00" fill="#000000">rawReadCount</text>
</g>
<!-- 17&#45;&gt;16 -->
<g id="edge39" class="edge">
<title>17&#45;&gt;16</title>
<path fill="none" stroke="#c0c0c0" stroke-width="2" d="M1087.9984,-359.8314C1088.1054,-352.131 1088.2326,-342.9743 1088.3514,-334.4166"/>
<polygon fill="#c0c0c0" stroke="#c0c0c0" stroke-width="2" points="1091.8511,-334.4609 1088.4904,-324.4133 1084.8517,-334.3637 1091.8511,-334.4609"/>
</g>
<!-- 18 -->
<g id="node19" class="node">
<title>18</title>
<path fill="none" stroke="#d87556" stroke-width="2" d="M1522.7461,-468C1522.7461,-468 1478.7461,-468 1478.7461,-468 1472.7461,-468 1466.7461,-462 1466.7461,-456 1466.7461,-456 1466.7461,-444 1466.7461,-444 1466.7461,-438 1472.7461,-432 1478.7461,-432 1478.7461,-432 1522.7461,-432 1522.7461,-432 1528.7461,-432 1534.7461,-438 1534.7461,-444 1534.7461,-444 1534.7461,-456 1534.7461,-456 1534.7461,-462 1528.7461,-468 1522.7461,-468"/>
<text text-anchor="middle" x="1500.7461" y="-447.5" font-family="sans" font-size="10.00" fill="#000000">multiqcFilt</text>
</g>
<!-- 18&#45;&gt;0 -->
<g id="edge3" class="edge">
<title>18&#45;&gt;0</title>
<path fill="none" stroke="#c0c0c0" stroke-width="2" d="M1535.0646,-432.7668C1575.3535,-409.8185 1636.7461,-365.1461 1636.7461,-306 1636.7461,-306 1636.7461,-306 1636.7461,-162 1636.7461,-97.5913 1152.0845,-37.9788 1012.1515,-22.1096"/>
<polygon fill="#c0c0c0" stroke="#c0c0c0" stroke-width="2" points="1012.2603,-18.5999 1001.9315,-20.9591 1011.4771,-25.5559 1012.2603,-18.5999"/>
</g>
<!-- 19&#45;&gt;18 -->
<g id="edge40" class="edge">
<title>19&#45;&gt;18</title>
<path fill="none" stroke="#c0c0c0" stroke-width="2" d="M1458.1296,-503.8314C1464.6947,-495.5386 1472.5968,-485.557 1479.8039,-476.4533"/>
<polygon fill="#c0c0c0" stroke="#c0c0c0" stroke-width="2" points="1482.706,-478.4262 1486.1689,-468.4133 1477.2177,-474.0813 1482.706,-478.4262"/>
</g>
<!-- 20 -->
<g id="node21" class="node">
<title>20</title>
<path fill="none" stroke="#9fd856" stroke-width="2" d="M1764.7461,-108C1764.7461,-108 1714.7461,-108 1714.7461,-108 1708.7461,-108 1702.7461,-102 1702.7461,-96 1702.7461,-96 1702.7461,-84 1702.7461,-84 1702.7461,-78 1708.7461,-72 1714.7461,-72 1714.7461,-72 1764.7461,-72 1764.7461,-72 1770.7461,-72 1776.7461,-78 1776.7461,-84 1776.7461,-84 1776.7461,-96 1776.7461,-96 1776.7461,-102 1770.7461,-108 1764.7461,-108"/>
<text text-anchor="middle" x="1739.7461" y="-87.5" font-family="sans" font-size="10.00" fill="#000000">multiqcRaw</text>
</g>
<!-- 20&#45;&gt;0 -->
<g id="edge10" class="edge">
<title>20&#45;&gt;0</title>
<path fill="none" stroke="#c0c0c0" stroke-width="2" d="M1702.4672,-75.5841C1697.8955,-74.1915 1693.2484,-72.9473 1688.7461,-72 1557.4084,-44.3646 1139.6552,-24.9304 1012.0956,-19.5236"/>
<polygon fill="#c0c0c0" stroke="#c0c0c0" stroke-width="2" points="1012.1765,-16.024 1002.0384,-19.101 1011.8826,-23.0179 1012.1765,-16.024"/>
</g>
<!-- 21 -->
<g id="node22" class="node">
<title>21</title>
<path fill="none" stroke="#56d8d0" stroke-width="2" d="M1761.7461,-180C1761.7461,-180 1717.7461,-180 1717.7461,-180 1711.7461,-180 1705.7461,-174 1705.7461,-168 1705.7461,-168 1705.7461,-156 1705.7461,-156 1705.7461,-150 1711.7461,-144 1717.7461,-144 1717.7461,-144 1761.7461,-144 1761.7461,-144 1767.7461,-144 1773.7461,-150 1773.7461,-156 1773.7461,-156 1773.7461,-168 1773.7461,-168 1773.7461,-174 1767.7461,-180 1761.7461,-180"/>
<text text-anchor="middle" x="1739.7461" y="-159.5" font-family="sans" font-size="10.00" fill="#000000">fastqcRaw</text>
</g>
<!-- 21&#45;&gt;20 -->
<g id="edge42" class="edge">
<title>21&#45;&gt;20</title>
<path fill="none" stroke="#c0c0c0" stroke-width="2" d="M1739.7461,-143.8314C1739.7461,-136.131 1739.7461,-126.9743 1739.7461,-118.4166"/>
<polygon fill="#c0c0c0" stroke="#c0c0c0" stroke-width="2" points="1743.2462,-118.4132 1739.7461,-108.4133 1736.2462,-118.4133 1743.2462,-118.4132"/>
</g>
<!-- 22&#45;&gt;0 -->
<g id="edge6" class="edge">
<title>22&#45;&gt;0</title>
<path fill="none" stroke="#c0c0c0" stroke-width="2" d="M1116.4171,-76.9613C1086.8955,-64.6749 1042.6592,-46.2644 1011.4871,-33.291"/>
<polygon fill="#c0c0c0" stroke="#c0c0c0" stroke-width="2" points="1012.4378,-29.8957 1001.8606,-29.2846 1009.7481,-36.3584 1012.4378,-29.8957"/>
</g>
<!-- 23&#45;&gt;0 -->
<g id="edge11" class="edge">
<title>23&#45;&gt;0</title>
<path fill="none" stroke="#c0c0c0" stroke-width="2" d="M907.4371,-143.9302C925.3142,-135.625 943.558,-123.9689 955.7461,-108 969.1724,-90.4089 973.6304,-65.491 974.8953,-46.3329"/>
<polygon fill="#c0c0c0" stroke="#c0c0c0" stroke-width="2" points="978.4025,-46.2254 975.3106,-36.0917 971.4082,-45.9417 978.4025,-46.2254"/>
</g>
<!-- 23&#45;&gt;22 -->
<g id="edge45" class="edge">
<title>23&#45;&gt;22</title>
<path fill="none" stroke="#c0c0c0" stroke-width="2" d="M916.2917,-146.1102C974.3434,-132.037 1057.2976,-111.9269 1106.5236,-99.9933"/>
<polygon fill="#c0c0c0" stroke="#c0c0c0" stroke-width="2" points="1107.601,-103.3336 1116.4948,-97.5761 1105.9517,-96.5307 1107.601,-103.3336"/>
</g>
<!-- 30 -->
<g id="node31" class="node">
<title>30</title>
<path fill="none" stroke="#56d8b1" stroke-width="2" d="M934.7461,-108C934.7461,-108 878.7461,-108 878.7461,-108 872.7461,-108 866.7461,-102 866.7461,-96 866.7461,-96 866.7461,-84 866.7461,-84 866.7461,-78 872.7461,-72 878.7461,-72 878.7461,-72 934.7461,-72 934.7461,-72 940.7461,-72 946.7461,-78 946.7461,-84 946.7461,-84 946.7461,-96 946.7461,-96 946.7461,-102 940.7461,-108 934.7461,-108"/>
<text text-anchor="middle" x="906.7461" y="-87.5" font-family="sans" font-size="10.00" fill="#000000">prepareFasta</text>
</g>
<!-- 23&#45;&gt;30 -->
<g id="edge60" class="edge">
<title>23&#45;&gt;30</title>
<path fill="none" stroke="#c0c0c0" stroke-width="2" d="M864.8773,-143.8314C871.3272,-135.5386 879.0906,-125.557 886.1713,-116.4533"/>
<polygon fill="#c0c0c0" stroke="#c0c0c0" stroke-width="2" points="889.048,-118.4556 892.4247,-108.4133 883.5225,-114.158 889.048,-118.4556"/>
</g>
<!-- 31 -->
<g id="node32" class="node">
<title>31</title>
<path fill="none" stroke="#5673d8" stroke-width="2" d="M836.2461,-108C836.2461,-108 779.2461,-108 779.2461,-108 773.2461,-108 767.2461,-102 767.2461,-96 767.2461,-96 767.2461,-84 767.2461,-84 767.2461,-78 773.2461,-72 779.2461,-72 779.2461,-72 836.2461,-72 836.2461,-72 842.2461,-72 848.2461,-78 848.2461,-84 848.2461,-84 848.2461,-96 848.2461,-96 848.2461,-102 842.2461,-108 836.2461,-108"/>
<text text-anchor="middle" x="807.7461" y="-87.5" font-family="sans" font-size="10.00" fill="#000000">vsearchParse</text>
</g>
<!-- 23&#45;&gt;31 -->
<g id="edge62" class="edge">
<title>23&#45;&gt;31</title>
<path fill="none" stroke="#c0c0c0" stroke-width="2" d="M839.8954,-143.8314C835.0439,-135.7079 829.2244,-125.9637 823.8781,-117.0118"/>
<polygon fill="#c0c0c0" stroke="#c0c0c0" stroke-width="2" points="826.8753,-115.2041 818.7429,-108.4133 820.8655,-118.7933 826.8753,-115.2041"/>
</g>
<!-- 24 -->
<g id="node25" class="node">
<title>24</title>
<path fill="none" stroke="#d86656" stroke-width="2" d="M439.2461,-180C439.2461,-180 390.2461,-180 390.2461,-180 384.2461,-180 378.2461,-174 378.2461,-168 378.2461,-168 378.2461,-156 378.2461,-156 378.2461,-150 384.2461,-144 390.2461,-144 390.2461,-144 439.2461,-144 439.2461,-144 445.2461,-144 451.2461,-150 451.2461,-156 451.2461,-156 451.2461,-168 451.2461,-168 451.2461,-174 445.2461,-180 439.2461,-180"/>
<text text-anchor="middle" x="414.7461" y="-159.5" font-family="sans" font-size="10.00" fill="#000000">list_sample</text>
</g>
<!-- 24&#45;&gt;0 -->
<g id="edge2" class="edge">
<title>24&#45;&gt;0</title>
<path fill="none" stroke="#c0c0c0" stroke-width="2" d="M406.4118,-143.9513C398.4822,-123.7639 390.1385,-91.3642 407.7461,-72 443.3833,-32.8075 816.6232,-21.392 937.3218,-18.7123"/>
<polygon fill="#c0c0c0" stroke="#c0c0c0" stroke-width="2" points="937.6213,-22.2068 947.5439,-18.493 937.4711,-15.2084 937.6213,-22.2068"/>
</g>
<!-- 25 -->
<g id="node26" class="node">
<title>25</title>
<path fill="none" stroke="#d89556" stroke-width="2" d="M511.2461,-108C511.2461,-108 428.2461,-108 428.2461,-108 422.2461,-108 416.2461,-102 416.2461,-96 416.2461,-96 416.2461,-84 416.2461,-84 416.2461,-78 422.2461,-72 428.2461,-72 428.2461,-72 511.2461,-72 511.2461,-72 517.2461,-72 523.2461,-78 523.2461,-84 523.2461,-84 523.2461,-96 523.2461,-96 523.2461,-102 517.2461,-108 511.2461,-108"/>
<text text-anchor="middle" x="469.7461" y="-87.5" font-family="sans" font-size="10.00" fill="#000000">seqkit_counts_raw</text>
</g>
<!-- 24&#45;&gt;25 -->
<g id="edge51" class="edge">
<title>24&#45;&gt;25</title>
<path fill="none" stroke="#c0c0c0" stroke-width="2" d="M428.6249,-143.8314C434.9597,-135.5386 442.5845,-125.557 449.5387,-116.4533"/>
<polygon fill="#c0c0c0" stroke="#c0c0c0" stroke-width="2" points="452.3913,-118.4847 455.6804,-108.4133 446.8286,-114.2353 452.3913,-118.4847"/>
</g>
<!-- 24&#45;&gt;26 -->
<g id="edge52" class="edge">
<title>24&#45;&gt;26</title>
<path fill="none" stroke="#c0c0c0" stroke-width="2" d="M451.4937,-147.7751C478.0517,-137.4946 514.4132,-123.4192 544.5967,-111.7353"/>
<polygon fill="#c0c0c0" stroke="#c0c0c0" stroke-width="2" points="546.097,-114.9076 554.1592,-108.0336 543.57,-108.3797 546.097,-114.9076"/>
</g>
<!-- 24&#45;&gt;27 -->
<g id="edge54" class="edge">
<title>24&#45;&gt;27</title>
<path fill="none" stroke="#c0c0c0" stroke-width="2" d="M377.8687,-145.3008C356.1639,-135.4722 328.4412,-122.9185 304.8971,-112.2571"/>
<polygon fill="#c0c0c0" stroke="#c0c0c0" stroke-width="2" points="306.3192,-109.0589 295.7659,-108.1222 303.4316,-115.4356 306.3192,-109.0589"/>
</g>
<!-- 24&#45;&gt;29 -->
<g id="edge58" class="edge">
<title>24&#45;&gt;29</title>
<path fill="none" stroke="#c0c0c0" stroke-width="2" d="M377.9951,-153.5998C330.0854,-142.649 244.9217,-123.183 181.3907,-108.6616"/>
<polygon fill="#c0c0c0" stroke="#c0c0c0" stroke-width="2" points="181.9176,-105.1919 171.3891,-106.3756 180.3578,-112.0159 181.9176,-105.1919"/>
</g>
<!-- 25&#45;&gt;0 -->
<g id="edge5" class="edge">
<title>25&#45;&gt;0</title>
<path fill="none" stroke="#c0c0c0" stroke-width="2" d="M523.5656,-74.0227C526.66,-73.2915 529.736,-72.61 532.7461,-72 681.0905,-41.9392 861.0648,-26.2736 937.5159,-20.5676"/>
<polygon fill="#c0c0c0" stroke="#c0c0c0" stroke-width="2" points="937.8851,-24.05 947.6024,-19.828 937.3732,-17.0687 937.8851,-24.05"/>
</g>
<!-- 26&#45;&gt;0 -->
<g id="edge7" class="edge">
<title>26&#45;&gt;0</title>
<path fill="none" stroke="#c0c0c0" stroke-width="2" d="M660.5148,-74.0959C663.6314,-73.3645 666.7225,-72.6609 669.7461,-72 765.6912,-51.0271 879.9707,-32.4953 937.5932,-23.5958"/>
<polygon fill="#c0c0c0" stroke="#c0c0c0" stroke-width="2" points="938.323,-27.0248 947.676,-22.0477 937.2607,-20.1059 938.323,-27.0248"/>
</g>
<!-- 27&#45;&gt;0 -->
<g id="edge12" class="edge">
<title>27&#45;&gt;0</title>
<path fill="none" stroke="#c0c0c0" stroke-width="2" d="M321.967,-74.3662C326.6168,-73.4948 331.2436,-72.6934 335.7461,-72 562.6784,-37.0499 838.6868,-23.3657 937.4196,-19.3663"/>
<polygon fill="#c0c0c0" stroke="#c0c0c0" stroke-width="2" points="937.6416,-22.8603 947.4952,-18.9671 937.3645,-15.8658 937.6416,-22.8603"/>
</g>
<!-- 28&#45;&gt;0 -->
<g id="edge15" class="edge">
<title>28&#45;&gt;0</title>
<path fill="none" stroke="#c0c0c0" stroke-width="2" d="M1378.7489,-581.6454C1483.6357,-560.3709 1674.7461,-512.9678 1674.7461,-450 1674.7461,-450 1674.7461,-450 1674.7461,-162 1674.7461,-116.7522 1876.4744,-172.9868 1468.7461,-72 1301.8725,-30.6685 1095.478,-20.9629 1012.1922,-18.6911"/>
<polygon fill="#c0c0c0" stroke="#c0c0c0" stroke-width="2" points="1012.0487,-15.1864 1001.9636,-18.4331 1011.8721,-22.1842 1012.0487,-15.1864"/>
</g>
<!-- 29&#45;&gt;0 -->
<g id="edge16" class="edge">
<title>29&#45;&gt;0</title>
<path fill="none" stroke="#c0c0c0" stroke-width="2" d="M171.6311,-73.4356C174.704,-72.9142 177.7519,-72.432 180.7461,-72 469.8756,-30.2856 823.0149,-20.6411 937.216,-18.5472"/>
<polygon fill="#c0c0c0" stroke="#c0c0c0" stroke-width="2" points="937.5743,-22.0416 947.5116,-18.3674 937.452,-15.0427 937.5743,-22.0416"/>
</g>
<!-- 30&#45;&gt;0 -->
<g id="edge17" class="edge">
<title>30&#45;&gt;0</title>
<path fill="none" stroke="#c0c0c0" stroke-width="2" d="M923.9054,-71.8314C931.8973,-63.3694 941.5499,-53.1489 950.2877,-43.8971"/>
<polygon fill="#c0c0c0" stroke="#c0c0c0" stroke-width="2" points="953.0341,-46.0866 957.3558,-36.4133 947.945,-41.2802 953.0341,-46.0866"/>
</g>
<!-- 31&#45;&gt;0 -->
<g id="edge21" class="edge">
<title>31&#45;&gt;0</title>
<path fill="none" stroke="#c0c0c0" stroke-width="2" d="M848.5989,-72.3868C876.0333,-60.5588 911.8636,-45.111 938.3245,-33.7027"/>
<polygon fill="#c0c0c0" stroke="#c0c0c0" stroke-width="2" points="939.8193,-36.8698 947.6165,-29.6966 937.0479,-30.4418 939.8193,-36.8698"/>
</g>
<!-- 32&#45;&gt;31 -->
<g id="edge61" class="edge">
<title>32&#45;&gt;31</title>
<path fill="none" stroke="#c0c0c0" stroke-width="2" d="M745.6905,-143.8314C755.8152,-135.0485 768.1238,-124.3712 779.1009,-114.8489"/>
<polygon fill="#c0c0c0" stroke="#c0c0c0" stroke-width="2" points="781.548,-117.3595 786.8084,-108.1628 776.961,-112.0718 781.548,-117.3595"/>
</g>
</g>
</svg>
